<svg width="484" height="241" viewBox="0 0 484 241" fill="none" xmlns="http://www.w3.org/2000/svg">
<path fill-rule="evenodd" clip-rule="evenodd" d="M197.044 122.5C197.044 164.301 163.188 198.188 121.423 198.188C79.6594 198.188 45.803 164.301 45.803 122.5C45.803 80.6989 79.6594 46.8125 121.423 46.8125C133.057 46.8125 144.076 49.4416 153.921 54.1386C157.005 55.6096 157.998 59.4228 156.284 62.3796C154.853 64.8469 151.702 65.6643 149.131 64.4331C146.505 63.1756 143.781 62.0913 140.972 61.1949L138.762 60.5334L118.355 92.3789C119.364 92.2771 120.388 92.225 121.423 92.225C122.199 92.225 122.969 92.2543 123.73 92.3117L178.204 92.3208C176.199 88.5498 173.83 85.0023 171.145 81.725C169.338 79.5212 169.381 76.2662 171.432 74.2889C173.893 71.9164 177.832 71.9747 179.995 74.6222C190.651 87.6664 197.044 104.336 197.044 122.5ZM145.709 140.697L146.001 140.151C146.905 138.893 147.714 137.563 148.42 136.17L164.18 170.538C152.819 180.675 137.84 186.834 121.423 186.834C117.264 186.834 113.196 186.439 109.257 185.684L145.228 141.387L145.709 140.697ZM97.4552 182.213C83.348 176.535 71.7174 165.994 64.6348 152.664L118.921 152.673L119.914 152.738L121.355 152.775L97.4552 182.213ZM145.109 103.669H182.904C184.722 109.624 185.701 115.948 185.701 122.5C185.701 137.171 180.794 150.696 172.533 161.519L149.728 111.8C149.241 110.51 148.668 109.262 148.018 108.063L147.723 107.442L147.354 106.764C147.201 106.522 147.032 106.294 146.847 106.089C146.307 105.253 145.727 104.445 145.109 103.669ZM59.9389 141.316C58.123 135.365 57.146 129.046 57.146 122.5C57.146 109.495 61.0015 97.391 67.6309 87.271L94.9627 137.208L95.9854 138.888C96.5261 139.726 97.1069 140.537 97.7253 141.316H59.9389ZM106.114 111.491L106.449 110.948C109.624 106.832 114.455 104.061 119.943 103.636L120.382 103.675L123.201 103.661C132.808 104.557 140.329 112.65 140.329 122.5C140.329 132.296 132.891 140.353 123.36 141.324H119.487C109.955 140.353 102.518 132.296 102.518 122.5C102.518 118.705 103.634 115.171 105.567 112.212C105.765 111.99 105.948 111.749 106.114 111.491ZM75.3206 77.6706C87.0002 65.64 103.34 58.1656 121.423 58.1656C123.19 58.1656 124.94 58.237 126.671 58.3769L97.1496 104.433C95.6788 106.409 94.4432 108.571 93.4844 110.878L75.3206 77.6706Z" fill="url(#paint0_linear)"/>
<path d="M233.504 86.5507V116.078H244.222V86.2364C244.222 83.4132 246.524 81.124 249.363 81.124H264.648V70.4653H249.679C240.746 70.4653 233.504 77.6668 233.504 86.5507Z" fill="white"/>
<path d="M303.131 70.4651L292.425 90.7743L280.593 70.4651H268.214L286.523 101.91L285.376 103.956C284.786 105.068 283.634 105.76 282.373 105.76H274.794V116.418H282.373C287.626 116.418 292.41 113.548 294.858 108.926L315.305 70.4651H303.131Z" fill="white"/>
<path d="M326.205 97.0946L332.816 84.5327C333.805 82.4617 335.934 81.1248 338.24 81.1248H341.434C342.177 81.1248 342.781 81.7238 342.781 82.4643V97.0946H326.205ZM345.412 70.4648H338.24C331.822 70.4648 325.892 74.191 323.227 79.7737L304.111 116.1H316.204L320.595 107.753H342.781V116.1H353.5V78.5082C353.5 74.0662 349.878 70.4648 345.412 70.4648Z" fill="white"/>
<path d="M396.911 70.4651H372.641C368.174 70.4651 364.552 74.0665 364.552 78.5084V115.998H375.272V82.4541C375.272 81.7201 375.871 81.1238 376.609 81.1238H392.944C393.682 81.1238 394.28 81.7201 394.28 82.4541V115.977H405V78.5084C405 74.0665 401.378 70.4651 396.911 70.4651Z" fill="white"/>
<path d="M285.046 152.716C285.046 158.179 283.213 162.505 279.545 165.695C275.921 168.842 270.725 170.656 263.958 171.136V183.197H254.592V171.136C247.825 170.656 242.607 168.863 238.94 165.761C235.316 162.614 233.504 158.266 233.504 152.716C233.504 147.254 235.294 143.015 238.874 139.999C242.498 136.984 247.737 135.236 254.592 134.755V121.842H263.958V134.755C270.725 135.236 275.921 137.006 279.545 140.065C283.213 143.124 285.046 147.341 285.046 152.716ZM243.393 152.716C243.393 155.863 244.288 158.288 246.078 159.992C247.868 161.697 250.707 162.767 254.592 163.204V142.687C250.707 143.08 247.868 144.107 246.078 145.768C244.288 147.385 243.393 149.701 243.393 152.716ZM263.958 163.204C267.843 162.767 270.682 161.697 272.472 159.992C274.306 158.288 275.223 155.863 275.223 152.716C275.223 149.701 274.306 147.385 272.472 145.768C270.682 144.107 267.843 143.08 263.958 142.687V163.204Z" fill="white"/>
<path d="M307.159 171.005C303.448 171.005 300.108 170.24 297.138 168.711C294.213 167.137 291.921 164.974 290.262 162.221C288.603 159.468 287.773 156.343 287.773 152.847C287.773 149.351 288.603 146.227 290.262 143.474C291.921 140.72 294.213 138.579 297.138 137.05C300.108 135.476 303.448 134.69 307.159 134.69C310.87 134.69 314.189 135.476 317.114 137.05C320.039 138.579 322.331 140.72 323.99 143.474C325.65 146.227 326.479 149.351 326.479 152.847C326.479 156.343 325.65 159.468 323.99 162.221C322.331 164.974 320.039 167.137 317.114 168.711C314.189 170.24 310.87 171.005 307.159 171.005ZM307.159 162.614C309.778 162.614 311.918 161.741 313.577 159.992C315.28 158.201 316.131 155.819 316.131 152.847C316.131 149.876 315.28 147.516 313.577 145.768C311.918 143.976 309.778 143.08 307.159 143.08C304.539 143.08 302.378 143.976 300.675 145.768C298.972 147.516 298.121 149.876 298.121 152.847C298.121 155.819 298.972 158.201 300.675 159.992C302.378 161.741 304.539 162.614 307.159 162.614Z" fill="white"/>
<path d="M360.52 143.605H348.601V170.48H338.449V143.605H326.53V135.214H360.52V143.605Z" fill="white"/>
<path d="M379.689 171.005C375.978 171.005 372.638 170.24 369.669 168.711C366.743 167.137 364.451 164.974 362.792 162.221C361.133 159.468 360.304 156.343 360.304 152.847C360.304 149.351 361.133 146.227 362.792 143.474C364.451 140.72 366.743 138.579 369.669 137.05C372.638 135.476 375.978 134.69 379.689 134.69C383.401 134.69 386.719 135.476 389.644 137.05C392.57 138.579 394.862 140.72 396.521 143.474C398.18 146.227 399.01 149.351 399.01 152.847C399.01 156.343 398.18 159.468 396.521 162.221C394.862 164.974 392.57 167.137 389.644 168.711C386.719 170.24 383.401 171.005 379.689 171.005ZM379.689 162.614C382.309 162.614 384.449 161.741 386.108 159.992C387.811 158.201 388.662 155.819 388.662 152.847C388.662 149.876 387.811 147.516 386.108 145.768C384.449 143.976 382.309 143.08 379.689 143.08C377.07 143.08 374.908 143.976 373.206 145.768C371.503 147.516 370.651 149.876 370.651 152.847C370.651 155.819 371.503 158.201 373.206 159.992C374.908 161.741 377.07 162.614 379.689 162.614Z" fill="white"/>
<defs>
<linearGradient id="paint0_linear" x1="45.803" y1="46.8125" x2="197.178" y2="198.053" gradientUnits="userSpaceOnUse">
<stop offset="0.141204" stop-color="#002E5D"/>
<stop offset="0.841518" stop-color="#005AAA"/>
</linearGradient>
</defs>
</svg>
