<svg width="484" height="241" viewBox="0 0 484 241" fill="none" xmlns="http://www.w3.org/2000/svg">
<path fill-rule="evenodd" clip-rule="evenodd" d="M197.044 121.5C197.044 163.301 163.188 197.188 121.423 197.188C79.6594 197.188 45.803 163.301 45.803 121.5C45.803 79.6989 79.6594 45.8125 121.423 45.8125C133.057 45.8125 144.076 48.4416 153.921 53.1386C157.005 54.6096 157.998 58.4228 156.284 61.3796C154.853 63.8469 151.702 64.6643 149.131 63.4331C146.505 62.1756 143.781 61.0913 140.972 60.1949L138.762 59.5334L118.355 91.3789C119.364 91.2771 120.388 91.225 121.423 91.225C122.199 91.225 122.969 91.2543 123.73 91.3117L178.204 91.3208C176.199 87.5498 173.83 84.0023 171.145 80.725C169.338 78.5212 169.381 75.2662 171.432 73.2889C173.893 70.9164 177.832 70.9747 179.995 73.6222C190.651 86.6664 197.044 103.336 197.044 121.5ZM145.709 139.697L146.001 139.151C146.905 137.893 147.714 136.563 148.42 135.17L164.18 169.538C152.819 179.675 137.84 185.834 121.423 185.834C117.264 185.834 113.196 185.439 109.257 184.684L145.228 140.387L145.709 139.697ZM97.4552 181.213C83.348 175.535 71.7174 164.994 64.6348 151.664L118.921 151.673L119.914 151.738L121.355 151.775L97.4552 181.213ZM145.109 102.669H182.904C184.722 108.624 185.701 114.948 185.701 121.5C185.701 136.171 180.794 149.696 172.533 160.519L149.728 110.8C149.241 109.51 148.668 108.262 148.018 107.063L147.723 106.442L147.354 105.764C147.201 105.522 147.032 105.294 146.847 105.089C146.307 104.253 145.727 103.445 145.109 102.669ZM59.9389 140.316C58.123 134.365 57.146 128.046 57.146 121.5C57.146 108.495 61.0015 96.391 67.6309 86.271L94.9627 136.208L95.9854 137.888C96.5261 138.726 97.1069 139.537 97.7253 140.316H59.9389ZM106.114 110.491L106.449 109.948C109.624 105.832 114.455 103.061 119.943 102.636L120.382 102.675L123.201 102.661C132.808 103.557 140.329 111.65 140.329 121.5C140.329 131.296 132.891 139.353 123.36 140.324H119.487C109.955 139.353 102.518 131.296 102.518 121.5C102.518 117.705 103.634 114.171 105.567 111.212C105.765 110.99 105.948 110.749 106.114 110.491ZM75.3206 76.6706C87.0002 64.64 103.34 57.1656 121.423 57.1656C123.19 57.1656 124.94 57.237 126.671 57.3769L97.1496 103.433C95.6788 105.409 94.4432 107.571 93.4844 109.878L75.3206 76.6706Z" fill="url(#paint0_linear)"/>
<path d="M233.504 85.5508V115.078H244.222V85.2364C244.222 82.4132 246.524 80.124 249.363 80.124H264.648V69.4654H249.679C240.746 69.4654 233.504 76.6669 233.504 85.5508Z" fill="black"/>
<path d="M303.131 69.4651L292.425 89.7743L280.593 69.4651H268.214L286.523 100.91L285.376 102.956C284.786 104.068 283.634 104.76 282.373 104.76H274.794V115.418H282.373C287.626 115.418 292.41 112.548 294.858 107.926L315.305 69.4651H303.131Z" fill="black"/>
<path d="M326.205 96.0946L332.816 83.5327C333.805 81.4617 335.934 80.1248 338.24 80.1248H341.434C342.177 80.1248 342.781 80.7238 342.781 81.4643V96.0946H326.205ZM345.412 69.4648H338.24C331.822 69.4648 325.892 73.191 323.227 78.7737L304.111 115.1H316.204L320.595 106.753H342.781V115.1H353.5V77.5082C353.5 73.0662 349.878 69.4648 345.412 69.4648Z" fill="black"/>
<path d="M396.911 69.4651H372.641C368.174 69.4651 364.552 73.0665 364.552 77.5084V114.998H375.272V81.4541C375.272 80.7201 375.871 80.1238 376.609 80.1238H392.944C393.682 80.1238 394.28 80.7201 394.28 81.4541V114.977H405V77.5084C405 73.0665 401.378 69.4651 396.911 69.4651Z" fill="black"/>
<path d="M285.046 151.716C285.046 157.179 283.213 161.505 279.545 164.695C275.921 167.842 270.725 169.656 263.958 170.136V182.197H254.592V170.136C247.825 169.656 242.607 167.863 238.94 164.761C235.316 161.614 233.504 157.266 233.504 151.716C233.504 146.254 235.294 142.015 238.874 138.999C242.498 135.984 247.737 134.236 254.592 133.755V120.842H263.958V133.755C270.725 134.236 275.921 136.006 279.545 139.065C283.213 142.124 285.046 146.341 285.046 151.716ZM243.393 151.716C243.393 154.863 244.288 157.288 246.078 158.992C247.868 160.697 250.707 161.767 254.592 162.204V141.687C250.707 142.08 247.868 143.107 246.078 144.768C244.288 146.385 243.393 148.701 243.393 151.716ZM263.958 162.204C267.843 161.767 270.682 160.697 272.472 158.992C274.306 157.288 275.223 154.863 275.223 151.716C275.223 148.701 274.306 146.385 272.472 144.768C270.682 143.107 267.843 142.08 263.958 141.687V162.204Z" fill="black"/>
<path d="M307.159 170.005C303.448 170.005 300.108 169.24 297.138 167.711C294.213 166.137 291.921 163.974 290.262 161.221C288.603 158.468 287.773 155.343 287.773 151.847C287.773 148.351 288.603 145.227 290.262 142.474C291.921 139.72 294.213 137.579 297.138 136.05C300.108 134.476 303.448 133.69 307.159 133.69C310.87 133.69 314.189 134.476 317.114 136.05C320.039 137.579 322.331 139.72 323.99 142.474C325.65 145.227 326.479 148.351 326.479 151.847C326.479 155.343 325.65 158.468 323.99 161.221C322.331 163.974 320.039 166.137 317.114 167.711C314.189 169.24 310.87 170.005 307.159 170.005ZM307.159 161.614C309.778 161.614 311.918 160.741 313.577 158.992C315.28 157.201 316.131 154.819 316.131 151.847C316.131 148.876 315.28 146.516 313.577 144.768C311.918 142.976 309.778 142.08 307.159 142.08C304.539 142.08 302.378 142.976 300.675 144.768C298.972 146.516 298.121 148.876 298.121 151.847C298.121 154.819 298.972 157.201 300.675 158.992C302.378 160.741 304.539 161.614 307.159 161.614Z" fill="black"/>
<path d="M360.52 142.605H348.601V169.48H338.449V142.605H326.53V134.214H360.52V142.605Z" fill="black"/>
<path d="M379.689 170.005C375.978 170.005 372.638 169.24 369.669 167.711C366.743 166.137 364.451 163.974 362.792 161.221C361.133 158.468 360.304 155.343 360.304 151.847C360.304 148.351 361.133 145.227 362.792 142.474C364.451 139.72 366.743 137.579 369.669 136.05C372.638 134.476 375.978 133.69 379.689 133.69C383.401 133.69 386.719 134.476 389.644 136.05C392.57 137.579 394.862 139.72 396.521 142.474C398.18 145.227 399.01 148.351 399.01 151.847C399.01 155.343 398.18 158.468 396.521 161.221C394.862 163.974 392.57 166.137 389.644 167.711C386.719 169.24 383.401 170.005 379.689 170.005ZM379.689 161.614C382.309 161.614 384.449 160.741 386.108 158.992C387.811 157.201 388.662 154.819 388.662 151.847C388.662 148.876 387.811 146.516 386.108 144.768C384.449 142.976 382.309 142.08 379.689 142.08C377.07 142.08 374.908 142.976 373.206 144.768C371.503 146.516 370.651 148.876 370.651 151.847C370.651 154.819 371.503 157.201 373.206 158.992C374.908 160.741 377.07 161.614 379.689 161.614Z" fill="black"/>
<defs>
<linearGradient id="paint0_linear" x1="45.803" y1="45.8125" x2="197.178" y2="197.053" gradientUnits="userSpaceOnUse">
<stop offset="0.141204" stop-color="#002E5D"/>
<stop offset="0.841518" stop-color="#005AAA"/>
</linearGradient>
</defs>
</svg>
